<?xml version="1.0" encoding="UTF-8" standalone="no"?>
<svg
   style="isolation:isolate"
   viewBox="0 0 34 34"
   width="34pt"
   height="34pt"
   version="1.1"
   id="svg16"
   sodipodi:docname="list-user.svg"
   inkscape:version="1.3.2 (091e20ef0f, 2023-11-25)"
   xmlns:inkscape="http://www.inkscape.org/namespaces/inkscape"
   xmlns:sodipodi="http://sodipodi.sourceforge.net/DTD/sodipodi-0.dtd"
   xmlns:xlink="http://www.w3.org/1999/xlink"
   xmlns="http://www.w3.org/2000/svg"
   xmlns:svg="http://www.w3.org/2000/svg"
   xmlns:rdf="http://www.w3.org/1999/02/22-rdf-syntax-ns#"
   xmlns:cc="http://creativecommons.org/ns#"
   xmlns:dc="http://purl.org/dc/elements/1.1/">
  <metadata
     id="metadata22">
    <rdf:RDF>
      <cc:Work
         rdf:about="">
        <dc:format>image/svg+xml</dc:format>
        <dc:type
           rdf:resource="http://purl.org/dc/dcmitype/StillImage" />
      </cc:Work>
    </rdf:RDF>
  </metadata>
  <defs
     id="defs20">
    <linearGradient
       id="linearGradient1"
       inkscape:collect="always">
      <stop
         style="stop-color:#624e9d;stop-opacity:1;"
         offset="0"
         id="stop1" />
      <stop
         style="stop-color:#9889c5;stop-opacity:1;"
         offset="1"
         id="stop3" />
    </linearGradient>
    <linearGradient
       inkscape:collect="always"
       xlink:href="#linearGradient1"
       id="linearGradient3"
       x1="0.73349184"
       y1="-33.110935"
       x2="24.160326"
       y2="-10.111987"
       gradientUnits="userSpaceOnUse" />
  </defs>
  <sodipodi:namedview
     pagecolor="#ffffff"
     bordercolor="#666666"
     borderopacity="1"
     objecttolerance="10"
     gridtolerance="10"
     guidetolerance="10"
     inkscape:pageopacity="0"
     inkscape:pageshadow="2"
     inkscape:window-width="1920"
     inkscape:window-height="996"
     id="namedview18"
     showgrid="false"
     inkscape:zoom="6.424208"
     inkscape:cx="35.257264"
     inkscape:cy="18.835007"
     inkscape:window-x="0"
     inkscape:window-y="0"
     inkscape:window-maximized="1"
     inkscape:current-layer="svg16"
     inkscape:document-rotation="0"
     inkscape:lockguides="false"
     inkscape:pagecheckerboard="0"
     inkscape:document-units="pt"
     inkscape:showpageshadow="2"
     inkscape:deskcolor="#d1d1d1" />
  <linearGradient
     id="_lgradient_2"
     x1="0"
     y1="0.5"
     x2="1"
     y2="0.5">
    <stop
       offset="0%"
       stop-opacity="1"
       style="stop-color:#89ddff"
       id="stop2" />
    <stop
       offset="100%"
       stop-opacity="1"
       style="stop-color:#89ddff"
       id="stop4" />
  </linearGradient>
  <linearGradient
     id="_lgradient_3"
     x1="0"
     y1="0.5"
     x2="1"
     y2="0.5"
     gradientTransform="matrix(33,0,0,33,0.5,0.5)"
     gradientUnits="userSpaceOnUse">
    <stop
       offset="0%"
       stop-opacity="1"
       style="stop-color:#89ddff"
       id="stop9" />
    <stop
       offset="100%"
       stop-opacity="1"
       style="stop-color:#89ddff"
       id="stop11" />
  </linearGradient>
  <circle
     style="opacity:1;fill:url(#linearGradient3);fill-opacity:1;stroke-width:1.1"
     id="circle1188"
     r="16.5"
     cy="-17"
     cx="17"
     transform="scale(1,-1)" />
  <g
     id="g1194"
     style="fill:#ffffff;stroke-width:2;stroke-linecap:round;stroke-linejoin:round"
     transform="matrix(1.1,0,0,1.1,-0.60000143,-1200.15)">
    <path
       id="path1192"
       d="m 14.292303,1107.0004 a 0.57692303,0.50000309 0 0 1 0.553854,0.5 v 2 h 8.076923 c 0.319617,0 0.57692,0.223 0.57692,0.5 v 2 c 0,0.276 -0.257303,0.5 -0.57692,0.5 h -8.076923 v 2 a 0.57692303,0.50000309 0 0 1 -0.93,0.394 l -5.192311,-3.5 a 0.57692303,0.50000309 0 0 1 0,-0.79 l 5.192311,-3.499 a 0.5803846,0.50300311 0 0 1 0.376146,-0.105 z m 3.415394,-9.0001 a 0.57692303,0.50000309 0 0 0 -0.553854,0.5 v 2 H 9.07692 c -0.319612,0 -0.57692,0.223 -0.57692,0.5 v 2 c 0,0.277 0.257308,0.5 0.57692,0.5 h 8.076923 v 2 a 0.57692303,0.50000309 0 0 0 0.93,0.394 l 5.192314,-3.5 a 0.57692303,0.50000309 0 0 0 0,-0.789 l -5.192314,-3.5 a 0.5803846,0.50300311 0 0 0 -0.376146,-0.105 z"
       inkscape:connector-curvature="0"
       style="fill:#d6dbf1;fill-opacity:1;stroke-width:2.14835" />
  </g>
</svg>
